<svg xmlns="http://www.w3.org/2000/svg" xmlns:xlink="http://www.w3.org/1999/xlink" xml:space="preserve" overflow="hidden" viewBox="0 0 2474 2475">
    <defs>
        <clipPath id="clip0">
            <rect x="963" y="0" width="2474" height="2475" />
        </clipPath>
        <clipPath id="clip1">
            <rect x="-2770.45" y="0" width="6860771" height="6858000" />
        </clipPath>
        <image width="2545" height="2546" xlink:href="!<PlatinumIcon>!" preserveAspectRatio="none" id="img2"></image>
        <clipPath id="clip3">
            <rect x="0" y="0" width="6855230" height="6857924" />
        </clipPath>
        <image width="1080" height="1080" xlink:href="!<ProfileIcon>!" preserveAspectRatio="xMidYMid slice" id="img4"></image>
        <clipPath id="clip5">
            <path d="M963 1710.5C963 1288.28 1305.28 946 1727.5 946 2149.72 946 2492 1288.28 2492 1710.5 2492 2132.72 2149.72 2475 1727.5 2475 1305.28 2475 963 2132.72 963 1710.5Z" fill-rule="evenodd" clip-rule="evenodd" />
        </clipPath>
    </defs>
    <g clip-path="url(#clip0)" transform="translate(-963 0)">
        <g clip-path="url(#clip1)" transform="matrix(0.000360892 0 0 0.000360892 963 0)">
            <g clip-path="url(#clip3)" transform="matrix(1 0 0 1.00001 0.0475631 0)">
                <use width="100%" height="100%" xlink:href="#img2" transform="scale(2693.61 2693.61)"></use>
            </g>
        </g>
        <g clip-path="url(#clip5)">
            <use width="100%" height="100%" xlink:href="#img4" transform="matrix(1.41574 0 0 1.41574 963 946)"></use>
        </g>
    </g>
</svg>