<svg width="1280" height="720" xmlns="http://www.w3.org/2000/svg" xmlns:xlink="http://www.w3.org/1999/xlink" overflow="hidden"><defs><clipPath id="clip0"><rect x="0" y="0" width="1280" height="720"/></clipPath><clipPath id="clip1"><path d="M276.657 450.218 542.849 352.551 640.516 618.744 374.324 716.41Z" fill-rule="evenodd" clip-rule="evenodd"/></clipPath><clipPath id="clip2"><path d="M276.657 450.218 542.849 352.551 640.516 618.744 374.324 716.41Z" fill-rule="evenodd" clip-rule="evenodd"/></clipPath><clipPath id="clip3"><path d="M276.657 450.218 542.849 352.551 640.516 618.744 374.324 716.41Z" fill-rule="evenodd" clip-rule="evenodd"/></clipPath><clipPath id="clip4"><path d="M707.042 137.134 842.469 157.197 822.406 292.624 686.979 272.561Z" fill-rule="evenodd" clip-rule="evenodd"/></clipPath><clipPath id="clip5"><path d="M707.042 137.134 842.469 157.197 822.406 292.624 686.979 272.561Z" fill-rule="evenodd" clip-rule="evenodd"/></clipPath><clipPath id="clip6"><path d="M707.042 137.134 842.469 157.197 822.406 292.624 686.979 272.561Z" fill-rule="evenodd" clip-rule="evenodd"/></clipPath></defs><g clip-path="url(#clip0)"><rect x="0" y="0" width="1280" height="720" fill="#0D0D0D"/><path d="M904.095 246.722 1112.29 102.034 1103.13 355.406Z" fill="#FFFFFF" fill-rule="evenodd" fill-opacity="0.0509804"/><path d="M50.8929 553.577C79.0003 502.104 143.512 483.163 194.985 511.271 246.457 539.378 265.398 603.89 237.291 655.362 209.183 706.835 144.671 725.776 93.199 697.668 41.7267 669.561 22.7856 605.049 50.8929 553.577Z" fill="#FFFFFF" fill-rule="evenodd" fill-opacity="0.0509804"/><path d="M803.823 440.56C807.799 433.279 816.926 430.599 824.207 434.575L936.39 495.835C943.671 499.811 946.351 508.937 942.375 516.219L881.115 628.401C877.139 635.683 868.013 638.362 860.731 634.386L748.549 573.127C741.267 569.151 738.588 560.024 742.564 552.743Z" fill="#FFFFFF" fill-rule="evenodd" fill-opacity="0.0509804"/><path d="M214.253 184.614 281.049 66.2764 412.787 99.6047 427.409 238.541 304.709 291.079Z" fill="#FFFFFF" fill-rule="evenodd" fill-opacity="0.0509804"/><g clip-path="url(#clip1)"><g clip-path="url(#clip2)"><g clip-path="url(#clip3)"><path d="M541.529 588.994 580.348 574.751 586.452 591.388 547.633 605.631Z" fill="#FFFFFF" fill-opacity="0.05"/><path d="M531.355 561.266 570.175 547.023 576.279 563.66 537.459 577.903Z" fill="#FFFFFF" fill-opacity="0.05"/><path d="M521.181 533.537 560.001 519.294 566.105 535.931 527.285 550.174Z" fill="#FFFFFF" fill-opacity="0.05"/><path d="M511.008 505.809 549.827 491.566 555.932 508.203 517.112 522.446Z" fill="#FFFFFF" fill-opacity="0.05"/><path d="M500.834 478.081 539.654 463.838 545.758 480.475 506.938 494.718Z" fill="#FFFFFF" fill-opacity="0.05"/><path d="M490.661 450.352 529.48 436.109 535.584 452.746 496.765 466.989Z" fill="#FFFFFF" fill-opacity="0.05"/><path d="M491.617 607.307 530.437 593.064 536.541 609.701 497.722 623.944Z" fill="#FFFFFF" fill-opacity="0.05"/><path d="M481.444 579.578 520.264 565.335 526.368 581.972 487.548 596.215Z" fill="#FFFFFF" fill-opacity="0.05"/><path d="M471.27 551.85 510.09 537.607 516.194 554.244 477.374 568.487Z" fill="#FFFFFF" fill-opacity="0.05"/><path d="M441.704 625.62 480.523 611.377 486.628 628.014 447.808 642.257Z" fill="#FFFFFF" fill-opacity="0.05"/><path d="M431.53 597.892 470.35 583.649 476.454 600.286 437.634 614.529Z" fill="#FFFFFF" fill-opacity="0.05"/><path d="M421.357 570.163 460.176 555.92 466.28 572.557 427.461 586.8Z" fill="#FFFFFF" fill-opacity="0.05"/><path d="M411.183 542.435 450.003 528.192 456.107 544.829 417.287 559.072Z" fill="#FFFFFF" fill-opacity="0.05"/><path d="M401.009 514.707 439.829 500.464 445.933 517.101 407.113 531.344Z" fill="#FFFFFF" fill-opacity="0.05"/><path d="M390.836 486.978 429.655 472.735 435.76 489.372 396.94 503.615Z" fill="#FFFFFF" fill-opacity="0.05"/><path d="M380.662 459.25 419.482 445.007 425.586 461.644 386.766 475.887Z" fill="#FFFFFF" fill-opacity="0.05"/><path d="M391.793 643.933 430.612 629.69 436.717 646.327 397.897 660.57Z" fill="#FFFFFF" fill-opacity="0.05"/><path d="M381.619 616.204 420.439 601.961 426.543 618.598 387.723 632.841Z" fill="#FFFFFF" fill-opacity="0.05"/><path d="M371.445 588.476 410.265 574.233 416.369 590.87 377.55 605.113Z" fill="#FFFFFF" fill-opacity="0.05"/><path d="M361.272 560.747 400.092 546.504 406.196 563.141 367.376 577.385Z" fill="#FFFFFF" fill-opacity="0.05"/><path d="M351.098 533.019 389.918 518.776 396.022 535.413 357.202 549.656Z" fill="#FFFFFF" fill-opacity="0.05"/></g></g></g><g clip-path="url(#clip4)"><g clip-path="url(#clip5)"><g clip-path="url(#clip6)"><path d="M822.573 170.829 745.215 177.245 736.249 237.764C732.707 236.374 728.151 235.987 723.527 237.032 713.856 239.06 707.084 245.842 708.443 252.242 709.801 258.642 718.636 262.258 728.287 260.372 737.049 258.642 743.392 252.806 743.522 247.059L752.237 188.233 812.082 183.259 804.454 234.749C800.911 233.359 796.355 232.973 791.59 233.997 781.919 236.024 775.148 242.806 776.506 249.206 777.865 255.607 786.7 259.222 796.35 257.336 804.386 255.643 810.3 250.753 811.518 245.455L811.518 245.455 822.573 170.829Z" fill="#FFFFFF" fill-opacity="0.05"/></g></g></g></g></svg>