<svg width="1280" height="720" xmlns="http://www.w3.org/2000/svg" xmlns:xlink="http://www.w3.org/1999/xlink" overflow="hidden"><defs><clipPath id="clip0"><rect x="0" y="0" width="1280" height="720"/></clipPath><clipPath id="clip1"><path d="M-19.9243 252.887 200.294 192.944 260.238 413.162 40.0194 473.106Z" fill-rule="evenodd" clip-rule="evenodd"/></clipPath><clipPath id="clip2"><path d="M-19.9243 252.887 200.294 192.944 260.238 413.162 40.0194 473.106Z" fill-rule="evenodd" clip-rule="evenodd"/></clipPath><clipPath id="clip3"><path d="M-19.9243 252.887 200.294 192.944 260.238 413.162 40.0194 473.106Z" fill-rule="evenodd" clip-rule="evenodd"/></clipPath><clipPath id="clip4"><path d="M707.042 137.134 842.469 157.197 822.406 292.624 686.979 272.561Z" fill-rule="evenodd" clip-rule="evenodd"/></clipPath><clipPath id="clip5"><path d="M707.042 137.134 842.469 157.197 822.406 292.624 686.979 272.561Z" fill-rule="evenodd" clip-rule="evenodd"/></clipPath><clipPath id="clip6"><path d="M707.042 137.134 842.469 157.197 822.406 292.624 686.979 272.561Z" fill-rule="evenodd" clip-rule="evenodd"/></clipPath></defs><g clip-path="url(#clip0)"><rect x="0" y="0" width="1280" height="720" fill="#FBFBFB"/><path d="M904.095 246.722 1112.29 102.034 1103.13 355.406Z" fill="#F2F2F2" fill-rule="evenodd"/><path d="M50.8929 553.577C79.0003 502.104 143.512 483.163 194.985 511.271 246.457 539.378 265.398 603.89 237.291 655.362 209.183 706.835 144.671 725.776 93.199 697.668 41.7267 669.561 22.7856 605.049 50.8929 553.577Z" fill="#F2F2F2" fill-rule="evenodd"/><path d="M1031.45 506.102C1034.73 500.082 1042.28 497.866 1048.3 501.154L1141.05 551.802C1147.07 555.09 1149.29 562.635 1146 568.656L1095.35 661.408C1092.06 667.428 1084.52 669.643 1078.5 666.356L985.746 615.707C979.726 612.42 977.51 604.874 980.798 598.854Z" fill="#FF8F8F" fill-rule="evenodd" fill-opacity="0.501961"/><path d="M301.346 626.738 390.808 575.258 464 648.035 419.773 744.493 319.248 731.331Z" fill="#92D050" fill-rule="evenodd" fill-opacity="0.701961"/><g clip-path="url(#clip1)"><g clip-path="url(#clip2)"><g clip-path="url(#clip3)"><path d="M182.909 382.469 215.024 373.728 218.77 387.491 186.655 396.233Z" fill="#FFC000" fill-opacity="0.4"/><path d="M176.665 359.53 208.78 350.788 212.526 364.552 180.411 373.294Z" fill="#FFC000" fill-opacity="0.4"/><path d="M170.42 336.591 202.536 327.849 206.282 341.612 174.167 350.354Z" fill="#FFC000" fill-opacity="0.4"/><path d="M164.176 313.651 196.292 304.909 200.038 318.673 167.923 327.415Z" fill="#FFC000" fill-opacity="0.4"/><path d="M157.932 290.712 190.047 281.97 193.794 295.734 161.679 304.475Z" fill="#FFC000" fill-opacity="0.4"/><path d="M151.688 267.772 183.803 259.03 187.55 272.794 155.435 281.536Z" fill="#FFC000" fill-opacity="0.4"/><path d="M141.618 393.709 173.733 384.967 177.479 398.731 145.364 407.473Z" fill="#FFC000" fill-opacity="0.4"/><path d="M135.374 370.769 167.489 362.028 171.235 375.791 139.12 384.533Z" fill="#FFC000" fill-opacity="0.4"/><path d="M129.129 347.83 161.245 339.088 164.991 352.852 132.876 361.594Z" fill="#FFC000" fill-opacity="0.4"/><path d="M100.324 404.949 132.44 396.207 136.186 409.971 104.071 418.713Z" fill="#FFC000" fill-opacity="0.4"/><path d="M94.0803 382.009 126.196 373.268 129.942 387.031 97.8268 395.773Z" fill="#FFC000" fill-opacity="0.4"/><path d="M87.8362 359.07 119.951 350.328 123.698 364.092 91.5826 372.834Z" fill="#FFC000" fill-opacity="0.4"/><path d="M81.592 336.131 113.707 327.389 117.454 341.152 85.3385 349.894Z" fill="#FFC000" fill-opacity="0.4"/><path d="M75.3479 313.191 107.463 304.449 111.21 318.213 79.0944 326.955Z" fill="#FFC000" fill-opacity="0.4"/><path d="M69.1038 290.252 101.219 281.51 104.965 295.274 72.8502 304.015Z" fill="#FFC000" fill-opacity="0.4"/><path d="M62.8596 267.312 94.9749 258.57 98.7213 272.334 66.6061 281.076Z" fill="#FFC000" fill-opacity="0.4"/><path d="M59.0334 416.188 91.1486 407.447 94.8951 421.21 62.7799 429.952Z" fill="#FFC000" fill-opacity="0.4"/><path d="M52.7893 393.249 84.9045 384.507 88.651 398.271 56.5358 407.013Z" fill="#FFC000" fill-opacity="0.4"/><path d="M46.5452 370.309 78.6604 361.568 82.4069 375.331 50.2916 384.073Z" fill="#FFC000" fill-opacity="0.4"/><path d="M40.301 347.37 72.4162 338.628 76.1627 352.392 44.0475 361.134Z" fill="#FFC000" fill-opacity="0.4"/><path d="M34.0569 324.431 66.1721 315.689 69.9186 329.452 37.8034 338.194Z" fill="#FFC000" fill-opacity="0.4"/></g></g></g><g clip-path="url(#clip4)"><g clip-path="url(#clip5)"><g clip-path="url(#clip6)"><path d="M822.573 170.829 745.215 177.245 736.249 237.764C732.707 236.374 728.151 235.987 723.527 237.032 713.856 239.06 707.084 245.842 708.443 252.242 709.801 258.642 718.636 262.258 728.287 260.372 737.049 258.642 743.392 252.806 743.522 247.059L752.237 188.233 812.082 183.259 804.454 234.749C800.911 233.359 796.355 232.973 791.59 233.997 781.919 236.024 775.148 242.806 776.506 249.206 777.865 255.607 786.7 259.222 796.35 257.336 804.386 255.643 810.3 250.753 811.518 245.455L811.518 245.455 822.573 170.829Z" fill="#00B0F0" fill-opacity="0.6"/></g></g></g></g></svg>