<svg xmlns="http://www.w3.org/2000/svg" xmlns:xlink="http://www.w3.org/1999/xlink" xml:space="preserve" overflow="hidden" viewBox="0 0 1946 349">
    <defs>
        <clipPath id="clip0">
            <rect x="1227" y="1063" width="1946" height="349" />
        </clipPath>
    </defs>
    <g clip-path="url(#clip0)" transform="translate(-1227 -1063)">
        <path d="M1248.26 1063 1334.69 1063C1356.49 1063 1376.04 1067.89 1393.33 1077.67 1410.63 1087.45 1424.06 1100.95 1433.64 1118.16 1443.21 1135.37 1448 1154.91 1448 1176.77 1448 1198.54 1443.19 1218 1433.56 1235.15 1423.94 1252.3 1410.5 1265.68 1393.26 1275.28 1376.01 1284.89 1356.49 1289.69 1334.69 1289.69L1269.52 1289.69 1269.52 1387.73C1269.52 1393.87 1267.51 1398.95 1263.49 1402.97 1259.47 1406.99 1254.4 1409 1248.26 1409 1242.08 1409 1236.99 1407 1233 1403.01 1229 1399.01 1227 1393.92 1227 1387.73L1227 1083.82C1227 1077.89 1228.99 1072.94 1232.96 1068.96 1236.94 1064.99 1242.04 1063 1248.26 1063ZM1269.52 1103.79 1269.52 1248.89 1334.69 1248.89C1348.58 1248.89 1360.92 1245.85 1371.72 1239.78 1382.51 1233.7 1390.98 1225.2 1397.13 1214.27 1403.28 1203.34 1406.35 1190.84 1406.35 1176.77 1406.35 1162.59 1403.29 1150 1397.18 1139.01 1391.07 1128.01 1382.6 1119.39 1371.75 1113.15 1360.91 1106.91 1348.56 1103.79 1334.69 1103.79L1269.52 1103.79Z" fill="currentColor" fill-rule="evenodd" />
        <path d="M1506.71 1063C1512.86 1063 1517.84 1064.93 1521.67 1068.78 1525.51 1072.63 1527.42 1077.5 1527.42 1083.39L1527.42 1329.8C1527.42 1341.57 1529.6 1350.84 1533.97 1357.61 1538.33 1364.38 1543.57 1367.77 1549.69 1367.77L1560.44 1367.77C1566.11 1367.77 1570.63 1369.74 1573.98 1373.67 1577.32 1377.6 1579 1382.43 1579 1388.16 1579 1394.48 1576.76 1399.53 1572.27 1403.32 1567.78 1407.11 1562.11 1409 1555.27 1409L1549.69 1409C1530.75 1409 1515.41 1401.55 1503.64 1386.65 1491.88 1371.74 1486 1352.8 1486 1329.8L1486 1083.39C1486 1077.42 1487.99 1072.53 1491.96 1068.72 1495.93 1064.91 1500.85 1063 1506.71 1063Z" fill="currentColor" fill-rule="evenodd" />
        <path d="M2131.22 1073C2138.75 1073 2145.26 1075.55 2150.75 1080.65 2156.25 1085.75 2159 1092.22 2159 1100.06 2159 1107.86 2156.27 1114.47 2150.8 1119.88 2145.33 1125.29 2138.66 1128 2130.78 1128 2122.88 1128 2116.27 1125.29 2110.96 1119.86 2105.65 1114.44 2103 1107.84 2103 1100.06 2103 1092.18 2105.74 1085.7 2111.21 1080.62 2116.68 1075.54 2123.35 1073 2131.22 1073Z" fill="currentColor" fill-rule="evenodd" />
        <path d="M1958.13 1089C1964.32 1089 1969.41 1091 1973.42 1095 1977.42 1098.99 1979.42 1103.93 1979.42 1109.82L1979.42 1172.85 2023.92 1172.85C2029.82 1172.85 2034.55 1174.63 2038.12 1178.2 2041.69 1181.77 2043.47 1186.2 2043.47 1191.51 2043.47 1196.78 2041.68 1201.21 2038.09 1204.8 2034.5 1208.38 2029.78 1210.18 2023.92 1210.18L1979.42 1210.18 1979.42 1321.18C1979.42 1334.94 1983.35 1346.08 1991.22 1354.59 1999.08 1363.1 2009.12 1367.35 2021.32 1367.35L2033.01 1367.35C2038.99 1367.35 2043.82 1369.37 2047.49 1373.4 2051.16 1377.43 2053 1382.35 2053 1388.17 2053 1394.1 2050.83 1399.06 2046.48 1403.03 2042.13 1407.01 2036.78 1409 2030.41 1409L2021.32 1409C2005.15 1409 1990.66 1405.12 1977.86 1397.36 1965.05 1389.59 1955.09 1379.12 1947.96 1365.95 1940.84 1352.77 1937.28 1337.85 1937.28 1321.18L1937.28 1210.18 1913.56 1210.18C1907.66 1210.18 1902.92 1208.39 1899.35 1204.83 1895.78 1201.27 1894 1196.83 1894 1191.51 1894 1186.15 1895.77 1181.71 1899.32 1178.16 1902.87 1174.62 1907.61 1172.85 1913.56 1172.85L1937.28 1172.85 1937.28 1109.82C1937.28 1103.92 1939.18 1098.98 1943 1094.99 1946.82 1091 1951.86 1089 1958.13 1089Z" fill="currentColor" fill-rule="evenodd" />
        <path d="M2346.38 1162C2367.59 1162 2386.7 1166.51 2403.7 1175.52 2420.71 1184.53 2434.01 1197.64 2443.61 1214.86 2453.2 1232.07 2458 1252.45 2458 1276L2458 1388.2C2458 1394.04 2455.99 1398.97 2451.97 1402.98 2447.95 1406.99 2443.02 1409 2437.16 1409 2430.98 1409 2425.89 1407.01 2421.89 1403.02 2417.9 1399.03 2415.9 1394.09 2415.9 1388.2L2415.9 1276C2415.9 1251.69 2409.2 1233.26 2395.81 1220.7 2382.42 1208.14 2364.79 1201.87 2342.92 1201.87 2329.46 1201.87 2317.37 1204.44 2306.63 1209.59 2295.9 1214.75 2287.46 1221.79 2281.31 1230.72 2275.17 1239.65 2272.1 1249.57 2272.1 1260.47L2272.1 1388.2C2272.1 1394.33 2270.16 1399.33 2266.29 1403.2 2262.41 1407.07 2257.4 1409 2251.26 1409 2245.12 1409 2240.04 1407.09 2236.02 1403.26 2232.01 1399.44 2230 1394.42 2230 1388.2L2230 1185.38C2230 1179.46 2231.99 1174.51 2235.96 1170.54 2239.94 1166.58 2245.04 1164.59 2251.26 1164.59 2257.48 1164.59 2262.51 1166.6 2266.35 1170.61 2270.18 1174.61 2272.1 1179.54 2272.1 1185.38L2272.1 1195.65C2276.81 1185.83 2286.23 1177.76 2300.36 1171.46 2314.5 1165.15 2329.83 1162 2346.38 1162Z" fill="currentColor" fill-rule="evenodd" />
        <path d="M2930.63 1162C2947.26 1162 2962.29 1165.81 2975.72 1173.42 2989.15 1181.03 2998.56 1190.74 3003.95 1202.56 3010.04 1190.62 3020.12 1180.88 3034.2 1173.33 3048.27 1165.78 3064.08 1162 3081.62 1162 3099.48 1162 3115.35 1166.26 3129.22 1174.77 3143.1 1183.28 3153.86 1195.25 3161.52 1210.68 3169.17 1226.1 3173 1243.85 3173 1263.92L3173 1388.2C3173 1394.33 3171.06 1399.33 3167.18 1403.2 3163.3 1407.07 3158.29 1409 3152.15 1409 3146 1409 3140.91 1407.09 3136.89 1403.26 3132.87 1399.44 3130.86 1394.42 3130.86 1388.2L3130.86 1263.92C3130.86 1244.68 3125.98 1229.53 3116.22 1218.46 3106.46 1207.4 3093.78 1201.87 3078.16 1201.87 3061.25 1201.87 3047.58 1207.46 3037.16 1218.66 3026.73 1229.86 3021.67 1244.66 3021.96 1263.06L3022 1263.92 3022 1388.2C3022 1394.33 3020.06 1399.33 3016.18 1403.2 3012.3 1407.07 3007.29 1409 3001.14 1409 2994.99 1409 2989.91 1407.09 2985.89 1403.26 2981.87 1399.44 2979.86 1394.42 2979.86 1388.2L2979.86 1263.92C2979.86 1244.68 2974.98 1229.53 2965.23 1218.46 2955.47 1207.4 2942.78 1201.87 2927.16 1201.87 2910.5 1201.87 2896.83 1207.32 2886.15 1218.23 2875.47 1229.15 2870.13 1243.22 2870.13 1260.47L2870.13 1388.2C2870.13 1394.33 2868.19 1399.33 2864.31 1403.2 2860.43 1407.07 2855.42 1409 2849.28 1409 2843.13 1409 2838.04 1407.09 2834.03 1403.26 2830.01 1399.44 2828 1394.42 2828 1388.2L2828 1185.38C2828 1179.46 2829.99 1174.51 2833.97 1170.54 2837.95 1166.58 2843.05 1164.59 2849.28 1164.59 2855.51 1164.59 2860.54 1166.6 2864.38 1170.61 2868.21 1174.61 2870.13 1179.54 2870.13 1185.38L2870.13 1190.48C2873.31 1182.14 2880.77 1175.31 2892.5 1169.98 2904.24 1164.66 2916.94 1162 2930.63 1162Z" fill="currentColor" fill-rule="evenodd" />
        <path d="M1733.5 1162C1756.74 1162 1777.86 1167.46 1796.87 1178.39 1815.88 1189.32 1830.82 1204.31 1841.69 1223.37 1852.56 1242.44 1858 1263.48 1858 1286.5L1858 1388.02C1858 1393.87 1855.99 1398.8 1851.97 1402.82 1847.95 1406.83 1842.88 1408.84 1836.75 1408.84 1830.6 1408.84 1825.53 1406.93 1821.52 1403.1 1817.5 1399.27 1815.5 1394.24 1815.5 1388.02L1815.5 1366.5C1810.22 1379.78 1799.54 1390.51 1783.45 1398.71 1767.36 1406.9 1749.56 1411 1730.05 1411 1707.26 1411 1686.69 1405.56 1668.34 1394.67 1649.99 1383.78 1635.51 1368.85 1624.91 1349.87 1614.3 1330.9 1609 1309.77 1609 1286.5 1609 1263.4 1614.42 1242.33 1625.27 1223.31 1636.12 1204.29 1651.04 1189.32 1670.06 1178.39 1689.07 1167.46 1710.22 1162 1733.5 1162ZM1733.5 1200.61C1717.93 1200.61 1703.77 1204.38 1691.01 1211.92 1678.26 1219.46 1668.27 1229.71 1661.05 1242.67 1653.82 1255.62 1650.21 1270.23 1650.21 1286.5 1650.21 1302.95 1653.84 1317.69 1661.11 1330.72 1668.39 1343.75 1678.37 1353.96 1691.07 1361.33 1703.77 1368.7 1717.91 1372.39 1733.5 1372.39 1749.03 1372.39 1763.08 1368.71 1775.64 1361.34 1788.2 1353.97 1798.12 1343.74 1805.42 1330.67 1812.71 1317.59 1816.36 1302.86 1816.36 1286.5 1816.36 1270.32 1812.72 1255.71 1805.45 1242.68 1798.18 1229.64 1788.27 1219.37 1775.72 1211.87 1763.16 1204.36 1749.09 1200.61 1733.5 1200.61Z" fill="currentColor" fill-rule="evenodd" />
        <path d="M2131.22 1164C2137.43 1164 2142.44 1166.01 2146.26 1170.03 2150.09 1174.04 2152 1178.98 2152 1184.84L2152 1387.72C2152 1393.82 2150.08 1398.89 2146.23 1402.94 2142.39 1406.98 2137.38 1409 2131.22 1409 2125.05 1409 2119.97 1407 2115.98 1403 2111.99 1399 2110 1393.91 2110 1387.72L2110 1184.84C2110 1178.9 2111.98 1173.94 2115.95 1169.97 2119.91 1165.99 2125 1164 2131.22 1164Z" fill="currentColor" fill-rule="evenodd" />
        <path d="M2545.84 1164C2552.02 1164 2557.1 1166 2561.1 1170.01 2565.1 1174.02 2567.1 1178.83 2567.1 1184.44L2567.1 1297.1C2567.1 1321.81 2573.8 1340.46 2587.19 1353.07 2600.58 1365.67 2618.21 1371.97 2640.08 1371.97 2653.52 1371.97 2665.58 1369.4 2676.25 1364.26 2686.92 1359.11 2695.37 1352.01 2701.58 1342.94 2707.79 1333.87 2710.9 1323.78 2710.9 1312.69L2710.9 1184.44C2710.9 1178.5 2712.81 1173.6 2716.65 1169.76 2720.48 1165.92 2725.51 1164 2731.74 1164 2737.87 1164 2742.95 1165.92 2746.97 1169.77 2750.99 1173.62 2753 1178.51 2753 1184.44L2753 1388.08C2753 1394.24 2750.99 1399.33 2746.97 1403.36 2742.95 1407.38 2737.87 1409.4 2731.74 1409.4 2725.51 1409.4 2720.48 1407.39 2716.65 1403.36 2712.81 1399.33 2710.9 1394.24 2710.9 1388.08L2710.9 1377.77C2706.03 1388 2696.56 1396.26 2682.51 1402.56 2668.45 1408.85 2653.15 1412 2636.62 1412 2615.34 1412 2596.22 1407.49 2579.27 1398.47 2562.33 1389.45 2549.04 1376.28 2539.43 1358.96 2529.81 1341.64 2525 1321.02 2525 1297.1L2525 1184.44C2525 1178.78 2526.99 1173.96 2530.96 1169.98 2534.94 1165.99 2539.9 1164 2545.84 1164Z" fill="currentColor" fill-rule="evenodd" />
    </g>
</svg>