<svg xmlns="http://www.w3.org/2000/svg" xmlns:xlink="http://www.w3.org/1999/xlink" xml:space="preserve" overflow="hidden" viewBox="0 0 1818 1299">
    <defs>
        <clipPath id="clip0">
            <rect x="1291" y="588" width="1818" height="1299" />
        </clipPath>
    </defs>
    <g clip-path="url(#clip0)" transform="translate(-1291 -588)">
        <rect x="1291" y="588" width="1818" height="1299" fill="#262626" />
        <path d="M1344 941.23C1344 906.309 1372.31 878 1407.23 878L2992.77 878C3027.69 878 3056 906.309 3056 941.23L3056 1760.77C3056 1795.69 3027.69 1824 2992.77 1824L1407.23 1824C1372.31 1824 1344 1795.69 1344 1760.77Z" fill="#404040" fill-rule="evenodd" />
        <path d="M1344 682.277C1344 663.346 1359.35 648 1378.28 648L3021.72 648C3040.65 648 3056 663.346 3056 682.277L3056 783.723C3056 802.654 3040.65 818 3021.72 818L1378.28 818C1359.35 818 1344 802.654 1344 783.723Z" fill="#595959" fill-rule="evenodd" />
    </g>
</svg>